<svg width="665" height="382" viewBox="0 0 665 382" xmlns="http://www.w3.org/2000/svg">
    <g fill="none" fill-rule="evenodd">
        <path d="M73.766 56.282c-70.549 40.73-94.712 130.954-53.971 201.52 40.74 70.565 130.958 94.75 201.507 54.02 70.548-40.731 94.711-130.955 53.97-201.52-40.74-70.566-130.958-94.751-201.506-54.02zM488.472 15.754c-56.186 32.44-75.43 104.295-42.983 160.494 32.447 56.2 104.297 75.461 160.483 43.022 56.186-32.438 75.43-104.294 42.983-160.493-32.447-56.2-104.297-75.461-160.483-43.023z" fill="#FF3A17"/>
        <path d="M321.729 86.55c-35.385 20.43-47.505 65.683-27.07 101.077 20.434 35.393 65.685 47.524 101.07 27.095 35.385-20.43 47.504-65.684 27.07-101.077-20.435-35.394-65.685-47.525-101.07-27.095z" fill="#00EAE6"/>
        <path d="M301.428 233.124c37.954-21.913 86.49-8.901 108.408 29.062 21.918 37.963 8.919 86.502-29.035 108.415-37.954 21.913-86.49 8.901-108.408-29.062-21.918-37.963-8.918-86.502 29.035-108.415" fill="#471CDA"/>
        <path d="M276.835 70.668c10.042-5.797 22.883-2.355 28.682 7.69 5.8 10.044 2.36 22.886-7.682 28.683-10.042 5.798-22.883 2.355-28.682-7.689-5.799-10.044-2.36-22.886 7.682-28.684" fill="#3D13CB"/>
    </g>
</svg>
